<svg width="640" height="420" viewBox="0 0 640 420" fill="none" xmlns="http://www.w3.org/2000/svg">
  <defs>
    <linearGradient id="paint_soft" x1="120" y1="60" x2="520" y2="360" gradientUnits="userSpaceOnUse">
      <stop stop-color="#A7F3D0" stop-opacity="0.55" />
      <stop offset="0.55" stop-color="#FBCFE8" stop-opacity="0.42" />
      <stop offset="1" stop-color="#BAE6FD" stop-opacity="0.5" />
    </linearGradient>
    <linearGradient id="stroke_soft" x1="120" y1="90" x2="520" y2="340" gradientUnits="userSpaceOnUse">
      <stop stop-color="#0F766E" stop-opacity="0.28" />
      <stop offset="1" stop-color="#0369A1" stop-opacity="0.22" />
    </linearGradient>
  </defs>

  <!-- 艺术：柔和的水彩感渐变块（低透明度） -->
  <path
    d="M172 78c48-40 124-56 196-34 74 22 136 86 152 152 16 66-16 134-78 170-62 36-154 40-232 12-78-28-142-92-148-162-6-70 46-98 110-138Z"
    fill="url(#paint_soft)"
  />

  <!-- 科技：抽象电路线条（细线 + 节点） -->
  <path
    d="M152 170h92c14 0 26-12 26-26v-26"
    stroke="url(#stroke_soft)"
    stroke-width="3"
    stroke-linecap="round"
    stroke-linejoin="round"
  />
  <path
    d="M366 132h80c20 0 36 16 36 36v38"
    stroke="url(#stroke_soft)"
    stroke-width="3"
    stroke-linecap="round"
    stroke-linejoin="round"
  />
  <path
    d="M234 286h108c18 0 32-14 32-32v-44"
    stroke="url(#stroke_soft)"
    stroke-width="3"
    stroke-linecap="round"
    stroke-linejoin="round"
  />

  <circle cx="152" cy="170" r="6" fill="#10B981" fill-opacity="0.25" />
  <circle cx="270" cy="118" r="6" fill="#38BDF8" fill-opacity="0.22" />
  <circle cx="366" cy="132" r="6" fill="#10B981" fill-opacity="0.22" />
  <circle cx="482" cy="244" r="6" fill="#38BDF8" fill-opacity="0.2" />
  <circle cx="234" cy="286" r="6" fill="#F472B6" fill-opacity="0.2" />

  <!-- 艺术：一点点“手绘”的不完全规则线条（安静克制） -->
  <path
    d="M188 226c26-18 60-24 96-16 36 8 72 30 104 56 32 26 66 44 102 44"
    stroke="#0F172A"
    stroke-opacity="0.12"
    stroke-width="4"
    stroke-linecap="round"
  />

  <!-- 科技 + 艺术结合：几何框架（很轻的线） -->
  <rect
    x="118"
    y="108"
    width="404"
    height="224"
    rx="28"
    stroke="#0F172A"
    stroke-opacity="0.06"
    stroke-width="3"
  />
</svg>
